<?xml version="1.0" encoding="UTF-8" standalone="no"?>
<!-- Created with Inkscape (http://www.inkscape.org/) -->

<svg
   width="40.074581"
   height="40.074585"
   viewBox="0 0 40.074581 40.074585"
   version="1.1"
   id="svg1"
   sodipodi:docname="UI new.svg"
   inkscape:version="1.3 (0e150ed6c4, 2023-07-21)"
   inkscape:export-filename="export/Menubar.png"
   inkscape:export-xdpi="288"
   inkscape:export-ydpi="288"
   xmlns:inkscape="http://www.inkscape.org/namespaces/inkscape"
   xmlns:sodipodi="http://sodipodi.sourceforge.net/DTD/sodipodi-0.dtd"
   xmlns="http://www.w3.org/2000/svg"
   xmlns:svg="http://www.w3.org/2000/svg">
  <sodipodi:namedview
     id="namedview1"
     pagecolor="#c7f4ff"
     bordercolor="#000000"
     borderopacity="0.25"
     inkscape:showpageshadow="2"
     inkscape:pageopacity="0.0"
     inkscape:pagecheckerboard="0"
     inkscape:deskcolor="#d1d1d1"
     inkscape:document-units="px"
     inkscape:zoom="1.2240864"
     inkscape:cx="910.88341"
     inkscape:cy="435.01831"
     inkscape:window-width="1920"
     inkscape:window-height="1011"
     inkscape:window-x="0"
     inkscape:window-y="0"
     inkscape:window-maximized="1"
     inkscape:current-layer="layer13"
     showguides="true"
     inkscape:lockguides="false"
     inkscape:export-bgcolor="#cef7ffff"
     showgrid="false">
    <sodipodi:guide
       position="655.34549,1156.3525"
       orientation="-1,0"
       id="guide7"
       inkscape:locked="false"
       inkscape:label="Welcome Text"
       inkscape:color="rgb(26,95,180)" />
    <sodipodi:guide
       position="13.779722,692.98852"
       orientation="-1,0"
       id="guide12"
       inkscape:locked="false"
       inkscape:label="info text"
       inkscape:color="rgb(230,97,0)" />
    <inkscape:grid
       id="grid44"
       units="px"
       originx="-33.378208"
       originy="-223.80658"
       spacingx="1"
       spacingy="1"
       empcolor="#0099e5"
       empopacity="0.30196078"
       color="#0099e5"
       opacity="0.14901961"
       empspacing="5"
       dotted="false"
       gridanglex="30"
       gridanglez="30"
       visible="false" />
  </sodipodi:namedview>
  <defs
     id="defs1">
    <inkscape:path-effect
       effect="powerstroke"
       id="path-effect6"
       is_visible="true"
       lpeversion="1.3"
       scale_width="1"
       interpolator_type="CentripetalCatmullRom"
       interpolator_beta="0.2"
       start_linecap_type="butt"
       end_linecap_type="round"
       offset_points="0.2,1.5 | 1,1.5 | 1.8,1.5 | 2.2,1.5 | 3,1.5 | 3.8,1.5 | 4.2,1.5 | 5,1.5 | 5.8,1.5 | 6.2,1.5 | 7,1.5 | 7.8,1.5 | 8.2,1.5 | 9,1.5 | 9.8,1.5 | 10.2,1.5 | 11,1.5 | 11.8,1.5 | 12.2,1.5 | 13,1.5 | 13.8,1.5 | 14.2,1.5 | 15,1.5 | 15.8,1.5"
       linejoin_type="miter"
       miter_limit="4"
       not_jump="false"
       sort_points="true"
       message="&lt;b&gt;Ctrl + click&lt;/b&gt; on existing node and move it" />
    <inkscape:path-effect
       effect="copy_rotate"
       starting_point="0,0"
       origin="47.15793,244.18"
       id="path-effect5"
       is_visible="true"
       lpeversion="1.2"
       lpesatellites=""
       method="normal"
       num_copies="4"
       starting_angle="0"
       rotation_angle="90"
       gap="-0.01"
       copies_to_360="true"
       mirror_copies="false"
       split_items="false"
       link_styles="false" />
    <inkscape:path-effect
       effect="mirror_symmetry"
       start_point="47.201585,244.18"
       end_point="70.429417,244.18"
       center_point="58.815501,244.18"
       id="path-effect1"
       is_visible="true"
       lpeversion="1.2"
       lpesatellites=""
       mode="free"
       discard_orig_path="false"
       fuse_paths="false"
       oposite_fuse="false"
       split_items="false"
       split_open="false"
       link_styles="false" />
    <linearGradient
       id="swatch5"
       inkscape:swatch="solid">
      <stop
         style="stop-color:#000000;stop-opacity:1;"
         offset="0"
         id="stop5" />
    </linearGradient>
  </defs>
  <g
     inkscape:groupmode="layer"
     id="layer4"
     inkscape:label="Interface"
     inkscape:highlight-color="#6535f3"
     transform="translate(-33.378208,-223.80658)">
    <g
       inkscape:groupmode="layer"
       id="layer5"
       inkscape:label="Toolbar">
      <path
         style="fill:#fefefe;fill-opacity:1;fill-rule:nonzero;stroke:none;stroke-width:0;stroke-linecap:round;stroke-linejoin:miter;stroke-miterlimit:4.3;stroke-dasharray:none;stroke-opacity:1"
         d="m 47.15793,244.18823 c 0.774261,0 2.58087,0 4.645566,0 4.129392,0 12.388176,0 18.582264,0 h 3.621321 l -2.560659,-2.56066 c -1.207957,-1.20796 -2.818566,-2.81857 -3.62387,-3.62387 -0.402652,-0.40265 -0.754973,-0.75498 -0.905968,-0.90597 a 1.5,1.5 90 0 0 -2.12132,2.12132 c 0.150994,0.15099 0.503315,0.50332 0.905967,0.90597 0.276014,0.27601 0.64663,0.64663 1.063212,1.06321 -5.495208,0 -11.597701,0 -14.960947,0 -2.064696,0 -3.871305,0 -4.645566,0 z m 0,2.98354 c 0.774261,0 2.58087,0 4.645566,0 3.363246,0 9.465739,0 14.960947,0 -0.416582,0.41658 -0.787198,0.7872 -1.063212,1.06321 -0.402652,0.40265 -0.754973,0.75498 -0.905967,0.90597 a 1.5,1.5 90 0 0 2.12132,2.12132 c 0.150995,-0.15099 0.503316,-0.50332 0.905968,-0.90597 0.805304,-0.8053 2.415913,-2.41591 3.62387,-3.62387 l 2.560659,-2.56066 H 70.38576 c -6.194088,0 -14.452872,0 -18.582264,0 -2.064696,0 -3.871305,0 -4.645566,0 z m 0.0082,-2.99177 c 0,-0.77426 0,-2.58087 0,-4.64557 0,-4.12939 0,-12.38817 0,-18.58226 v -3.62132 l -2.56066,2.56066 c -1.207958,1.20795 -2.818567,2.81856 -3.623872,3.62387 -0.402652,0.40265 -0.754973,0.75497 -0.905968,0.90597 a 1.5,1.5 90 0 0 2.12132,2.12132 c 0.150995,-0.151 0.503315,-0.50332 0.905968,-0.90597 0.276014,-0.27602 0.64663,-0.64663 1.063212,-1.06321 0,5.49521 0,11.5977 0,14.96094 0,2.0647 0,3.87131 0,4.64557 z m 2.98354,0 c 0,-0.77426 0,-2.58087 0,-4.64557 0,-3.36324 0,-9.46573 0,-14.96094 0.416582,0.41658 0.787198,0.78719 1.063212,1.06321 0.402653,0.40265 0.754973,0.75497 0.905968,0.90597 a 1.5,1.5 90 0 0 2.12132,-2.12132 c -0.150995,-0.151 -0.503316,-0.50332 -0.905968,-0.90597 -0.805305,-0.80531 -2.415914,-2.41592 -3.623872,-3.62387 l -2.56066,-2.56066 v 3.62132 c 0,6.19409 0,14.45287 0,18.58226 0,2.0647 0,3.87131 0,4.64557 z m -2.99177,-0.008 c -0.774261,0 -2.58087,0 -4.645566,0 -4.129392,0 -12.388176,0 -18.582264,0 h -3.621321 l 2.560659,2.56066 c 1.207957,1.20796 2.818566,2.81857 3.62387,3.62387 0.402652,0.40265 0.754973,0.75498 0.905968,0.90597 a 1.5,1.5 90 0 0 2.12132,-2.12132 c -0.150994,-0.15099 -0.503315,-0.50332 -0.905967,-0.90597 -0.276014,-0.27601 -0.64663,-0.64663 -1.063212,-1.06321 5.495208,0 11.597701,0 14.960947,0 2.064696,0 3.871305,0 4.645566,0 z m 0,-2.98354 c -0.774261,0 -2.58087,0 -4.645566,0 -3.363246,0 -9.465739,0 -14.960947,0 0.416582,-0.41658 0.787198,-0.7872 1.063212,-1.06321 0.402652,-0.40265 0.754973,-0.75498 0.905967,-0.90597 a 1.5,1.5 90 0 0 -2.12132,-2.12132 c -0.150995,0.15099 -0.503316,0.50332 -0.905968,0.90597 -0.805304,0.8053 -2.415913,2.41591 -3.62387,3.62387 l -2.560659,2.56066 H 23.9301 c 6.194088,0 14.452872,0 18.582264,0 2.064696,0 3.871305,0 4.645566,0 z M 47.1497,244.18 c 0,0.77426 0,2.58087 0,4.64557 0,4.12939 0,12.38817 0,18.58226 v 3.62132 l 2.56066,-2.56066 c 1.207958,-1.20795 2.818567,-2.81856 3.623872,-3.62387 0.402652,-0.40265 0.754973,-0.75497 0.905968,-0.90597 a 1.5,1.5 90 0 0 -2.12132,-2.12132 c -0.150995,0.151 -0.503315,0.50332 -0.905968,0.90597 -0.276014,0.27602 -0.64663,0.64663 -1.063212,1.06321 0,-5.49521 0,-11.5977 0,-14.96094 0,-2.0647 0,-3.87131 0,-4.64557 z m -2.98354,0 c 0,0.77426 0,2.58087 0,4.64557 0,3.36324 0,9.46573 0,14.96094 -0.416582,-0.41658 -0.787198,-0.78719 -1.063212,-1.06321 -0.402653,-0.40265 -0.754973,-0.75497 -0.905968,-0.90597 a 1.5,1.5 90 0 0 -2.12132,2.12132 c 0.150995,0.151 0.503316,0.50332 0.905968,0.90597 0.805305,0.80531 2.415914,2.41592 3.623872,3.62387 l 2.56066,2.56066 v -3.62132 c 0,-6.19409 0,-14.45287 0,-18.58226 0,-2.0647 0,-3.87131 0,-4.64557 z"
         id="path41"
         sodipodi:nodetypes="ccc"
         inkscape:path-effect="#path-effect1;#path-effect5;#path-effect6"
         inkscape:original-d="m 47.15793,242.68823 h 23.227832 l -4.529838,-4.52984"
         transform="matrix(0.74629137,0,0,0.74629137,18.221943,61.614443)"
         inkscape:label="Move" />
    </g>
  </g>
</svg>
