<?xml version="1.0" encoding="UTF-8" standalone="no"?>
<!-- Created with Inkscape (http://www.inkscape.org/) -->

<svg
   width="53.858929"
   height="53.858826"
   viewBox="0 0 53.858929 53.858826"
   version="1.1"
   id="svg1"
   sodipodi:docname="UI new.svg"
   inkscape:version="1.3 (0e150ed6c4, 2023-07-21)"
   inkscape:export-filename="export/Menubar.png"
   inkscape:export-xdpi="288"
   inkscape:export-ydpi="288"
   xmlns:inkscape="http://www.inkscape.org/namespaces/inkscape"
   xmlns:sodipodi="http://sodipodi.sourceforge.net/DTD/sodipodi-0.dtd"
   xmlns="http://www.w3.org/2000/svg"
   xmlns:svg="http://www.w3.org/2000/svg">
  <sodipodi:namedview
     id="namedview1"
     pagecolor="#c7f4ff"
     bordercolor="#000000"
     borderopacity="0.25"
     inkscape:showpageshadow="2"
     inkscape:pageopacity="0.0"
     inkscape:pagecheckerboard="0"
     inkscape:deskcolor="#d1d1d1"
     inkscape:document-units="px"
     inkscape:zoom="1.2240864"
     inkscape:cx="910.88341"
     inkscape:cy="435.01831"
     inkscape:window-width="1920"
     inkscape:window-height="1011"
     inkscape:window-x="0"
     inkscape:window-y="0"
     inkscape:window-maximized="1"
     inkscape:current-layer="layer13"
     showguides="true"
     inkscape:lockguides="false"
     inkscape:export-bgcolor="#cef7ffff"
     showgrid="false">
    <sodipodi:guide
       position="658.75634,1221.2939"
       orientation="-1,0"
       id="guide7"
       inkscape:locked="false"
       inkscape:label="Welcome Text"
       inkscape:color="rgb(26,95,180)" />
    <sodipodi:guide
       position="17.190572,757.92993"
       orientation="-1,0"
       id="guide12"
       inkscape:locked="false"
       inkscape:label="info text"
       inkscape:color="rgb(230,97,0)" />
    <inkscape:grid
       id="grid44"
       units="px"
       originx="-29.967358"
       originy="-288.74799"
       spacingx="1"
       spacingy="1"
       empcolor="#0099e5"
       empopacity="0.30196078"
       color="#0099e5"
       opacity="0.14901961"
       empspacing="5"
       dotted="false"
       gridanglex="30"
       gridanglez="30"
       visible="false" />
  </sodipodi:namedview>
  <defs
     id="defs1">
    <inkscape:path-effect
       effect="powerstroke"
       id="path-effect39"
       is_visible="true"
       lpeversion="1.3"
       scale_width="1"
       interpolator_type="CentripetalCatmullRom"
       interpolator_beta="0.2"
       start_linecap_type="round"
       end_linecap_type="round"
       offset_points="0.2,0.90000015 | 1,0.90000015 | 1.8,0.90000015 | 2.2,0.90000015 | 3,0.90000015 | 3.8,0.90000015"
       linejoin_type="round"
       miter_limit="4"
       not_jump="false"
       sort_points="true"
       message="&lt;b&gt;Ctrl + click&lt;/b&gt; on existing node and move it" />
    <inkscape:path-effect
       effect="mirror_symmetry"
       start_point="66.421301,303.49484"
       end_point="66.421301,320.40299"
       center_point="66.421301,311.94891"
       id="path-effect37"
       is_visible="true"
       lpeversion="1.2"
       lpesatellites=""
       mode="free"
       discard_orig_path="false"
       fuse_paths="false"
       oposite_fuse="false"
       split_items="false"
       split_open="false"
       link_styles="false" />
    <linearGradient
       id="swatch5"
       inkscape:swatch="solid">
      <stop
         style="stop-color:#000000;stop-opacity:1;"
         offset="0"
         id="stop5" />
    </linearGradient>
  </defs>
  <g
     inkscape:groupmode="layer"
     id="layer4"
     inkscape:label="Interface"
     inkscape:highlight-color="#6535f3"
     transform="translate(-29.967358,-288.74799)">
    <g
       inkscape:groupmode="layer"
       id="layer5"
       inkscape:label="Toolbar">
      <g
         id="g44"
         inkscape:label="Scale">
        <path
           id="rect9"
           style="fill:none;stroke:#f9f9f9;stroke-width:3;stroke-linecap:round;stroke-linejoin:round"
           d="m 48.082394,327.038 v 12.52276 c 0,0.85651 -0.689539,1.54605 -1.546051,1.54605 H 33.013408 c -0.856512,0 -1.54605,-0.68954 -1.54605,-1.54605 v -13.52295 c 0,-0.85651 0.689538,-1.54605 1.54605,-1.54605 H 45.536"
           sodipodi:nodetypes="cssssssc" />
        <path
           d="m 52.121203,325.73625 h 26.902343 c 0.114341,0 0.228563,-0.006 0.339844,-0.0176 0.111282,-0.0112 0.220448,-0.0269 0.328125,-0.0488 0.107678,-0.0219 0.212878,-0.05 0.316406,-0.082 0.103529,-0.0321 0.205853,-0.0677 0.304688,-0.10937 0.09883,-0.0417 0.195466,-0.088 0.289062,-0.13868 0.0936,-0.0507 0.183672,-0.10678 0.271485,-0.16601 0.08781,-0.0592 0.172422,-0.12226 0.253906,-0.18946 0.08148,-0.0672 0.159765,-0.13828 0.234375,-0.21289 0.07461,-0.0746 0.145699,-0.15289 0.212891,-0.23437 0.06719,-0.0815 0.130225,-0.16609 0.189453,-0.25391 0.05923,-0.0878 0.115297,-0.17788 0.166015,-0.27148 0.05072,-0.0936 0.09701,-0.19023 0.138672,-0.28906 0.04166,-0.0988 0.07731,-0.20116 0.109375,-0.30469 0.03207,-0.10353 0.06011,-0.20873 0.08203,-0.31641 0.02192,-0.10768 0.03759,-0.21684 0.04883,-0.32812 0.01123,-0.11128 0.01758,-0.22551 0.01758,-0.33985 v -28.88281 c 0,-0.11434 -0.0063,-0.22856 -0.01758,-0.33984 -0.01123,-0.11128 -0.02691,-0.22045 -0.04883,-0.32813 -0.02192,-0.10768 -0.04997,-0.21287 -0.08203,-0.3164 -0.03207,-0.10353 -0.06771,-0.20586 -0.109375,-0.30469 -0.04166,-0.0988 -0.08795,-0.19351 -0.138672,-0.28711 -0.05072,-0.0936 -0.106788,-0.18563 -0.166015,-0.27344 -0.05923,-0.0878 -0.122262,-0.17242 -0.189453,-0.2539 -0.06719,-0.0815 -0.138281,-0.15977 -0.212891,-0.23438 -0.07461,-0.0746 -0.152891,-0.1457 -0.234375,-0.21289 -0.08148,-0.0672 -0.166094,-0.13023 -0.253906,-0.18945 -0.08781,-0.0592 -0.177888,-0.1153 -0.271485,-0.16602 -0.0936,-0.0507 -0.190227,-0.097 -0.289062,-0.13867 -0.09883,-0.0417 -0.201159,-0.0773 -0.304688,-0.10938 -0.103528,-0.0321 -0.208728,-0.0601 -0.316406,-0.082 -0.107677,-0.0219 -0.216843,-0.0376 -0.328125,-0.0488 -0.111281,-0.0112 -0.225503,-0.0176 -0.339844,-0.0176 l -28.882809,-4e-5 c -0.11434,0 -0.228562,0.006 -0.339844,0.0176 -0.111281,0.0112 -0.220447,0.0269 -0.328125,0.0488 -0.107677,0.0219 -0.212877,0.05 -0.316406,0.082 -0.103529,0.0321 -0.205852,0.0677 -0.304688,0.10938 -0.09884,0.0417 -0.193513,0.088 -0.287109,0.13867 -0.0936,0.0507 -0.185625,0.10679 -0.273437,0.16602 -0.08781,0.0592 -0.172423,0.12226 -0.253907,0.18945 -0.08148,0.0672 -0.159765,0.13828 -0.234375,0.21289 -0.07461,0.0746 -0.145699,0.15289 -0.21289,0.23438 -0.06719,0.0815 -0.130226,0.16609 -0.189453,0.2539 -0.05923,0.0878 -0.113344,0.17984 -0.164063,0.27344 -0.05072,0.0936 -0.09701,0.18827 -0.138672,0.28711 -0.04167,0.0988 -0.07926,0.20116 -0.111328,0.30469 -0.03207,0.10353 -0.06011,0.20872 -0.08203,0.3164 -0.02192,0.10768 -0.03759,0.21685 -0.04883,0.32813 -0.01123,0.11128 -0.01758,0.2255 -0.01758,0.33984 v 26.90234"
           style="fill:none;stroke:#f9f9f9;stroke-width:3;stroke-linecap:round;stroke-linejoin:round"
           id="path13"
           sodipodi:nodetypes="cscscssssssssssssssssssssssssssssssscscsssssssssssssc" />
        <path
           style="fill:#fefefe;fill-rule:nonzero;stroke:none;stroke-width:2.34733;stroke-linecap:round;stroke-dasharray:none;stroke-opacity:1"
           d="m 67.321301,320.40299 c 0,-0.56361 0,-1.87868 0,-3.38163 0,-3.00589 0,-9.01768 0,-13.52652 a 0.9000008,0.9000002 67.500024 0 0 -1.536396,-0.6364 c -0.760339,0.76034 -1.774125,1.77413 -2.281018,2.28102 -0.253446,0.25345 -0.475212,0.47521 -0.570254,0.57025 a 0.90000015,0.90000015 90 0 0 1.272792,1.2728 c 0.09504,-0.0951 0.316808,-0.31681 0.570254,-0.57026 0.190219,-0.19022 0.45182,-0.45182 0.744622,-0.74462 0,4.11582 0,8.81059 0,11.35373 0,1.50295 0,2.81802 0,3.38163 a 0.90000015,0.90000015 90 0 0 1.8,0 z m 0,0 c 0,-0.56361 0,-1.87868 0,-3.38163 0,-2.54314 0,-7.23791 0,-11.35373 0.292802,0.2928 0.554403,0.5544 0.744622,0.74462 0.253446,0.25345 0.475212,0.47521 0.570254,0.57026 a 0.90000015,0.90000015 90 0 0 1.272792,-1.2728 c -0.09504,-0.095 -0.316808,-0.3168 -0.570254,-0.57025 -0.506893,-0.50689 -1.520679,-1.52068 -2.281018,-2.28102 a 0.9000002,0.9000008 22.499976 0 0 -1.536396,0.6364 c 0,4.50884 0,10.52063 0,13.52652 0,1.50295 0,2.81802 0,3.38163 a 0.90000015,0.90000015 90 0 0 1.8,0 z"
           id="path36"
           inkscape:path-effect="#path-effect37;#path-effect39"
           inkscape:original-d="m 66.421301,320.40299 v -16.90815 l -2.851272,2.85127"
           transform="matrix(0.90371808,0.90371808,-0.90371808,0.90371808,281.2355,-27.936625)" />
      </g>
    </g>
  </g>
</svg>
