<?xml version="1.0" encoding="UTF-8" standalone="no"?>
<!DOCTYPE svg PUBLIC "-//W3C//DTD SVG 1.1//EN" "http://www.w3.org/Graphics/SVG/1.1/DTD/svg11.dtd">
<svg width="100%" height="100%" viewBox="0 0 800 800" version="1.1" xmlns="http://www.w3.org/2000/svg" xmlns:xlink="http://www.w3.org/1999/xlink" xml:space="preserve" xmlns:serif="http://www.serif.com/" style="fill-rule:evenodd;clip-rule:evenodd;stroke-linejoin:round;stroke-miterlimit:2;">
    <path d="M400.016,0C268.192,0 160,107.84 160,239.376C160,290.352 176.32,337.856 203.84,376.768L202.856,375.232L356.496,640.816L357.28,641.832C363.472,649.912 369.6,656.424 377.016,661.328C384.432,666.232 393.928,669.328 403.256,668.392C421.896,666.52 432.728,653.64 442.736,640.072L443.36,639.232L612.752,350.96L612.888,350.72C616.944,343.4 619.88,336.016 622.392,328.864C634.009,300.459 639.989,270.064 640,239.376C640,107.84 531.84,0 400.016,0ZM400.016,40C510.048,40 600,129.744 600,239.376C600.007,264.982 595.006,290.345 585.28,314.032L585.08,314.528L584.904,315.048C582.8,321.104 580.512,326.6 577.872,331.368L410.2,616.696C402.776,626.472 397.6,628.776 399.264,628.6C400.12,628.52 400.912,629.192 399.08,627.976C397.328,626.824 393.752,623.416 389.512,618.008L237.04,354.4L236.512,353.656C213.512,321.176 200,281.84 200,239.376C200,129.752 289.984,40 400.016,40ZM400.016,102.8C324.32,102.8 263.096,163.808 263.096,239.376C263.096,314.944 324.328,375.952 400.016,375.952C475.704,375.952 536.904,314.936 536.904,239.376C536.904,163.808 475.704,102.8 400.016,102.8ZM400.016,142.8C454.552,142.8 496.904,185.08 496.904,239.376C496.904,293.672 454.56,335.952 400.016,335.952C345.472,335.952 303.096,293.664 303.096,239.376C303.096,185.08 345.48,142.8 400.016,142.8Z" style="fill:white;fill-rule:nonzero;"/>
    <path d="M510.784,586.832L499.72,600.512C514.68,602.32 529.16,604.44 542.72,607.008L601,621.8C627.784,630.784 664.872,641.768 677.16,654.256C689.878,659.817 692.303,668.81 689.144,679.664C688.872,693.984 664.595,707.6 640.147,717.024C631.475,722.502 610.632,727.803 580.792,736.808C544.36,746.728 483.192,752.76 432.552,755.536L367.44,755.536C316.8,752.76 255.64,746.736 219.2,736.816C199.255,730.459 182.558,728.117 163.769,720.025C139.673,712.705 111.128,693.976 110.856,679.664C111.38,669.859 114.809,661.171 122.848,654.256C135.136,641.768 172.224,630.784 199.008,621.8C204.77,619.379 223.202,614.631 257.288,607.008C271.443,604.391 285.68,602.238 299.976,600.552L289.072,586.848C170.792,599.144 72.488,625.328 46.712,666.68C5.6,732.584 157.264,798.88 394.96,799.912C398.496,800.088 401.984,799.96 405.28,799.912C642.84,798.824 794.368,732.552 753.288,666.68C727.496,625.312 629.128,599.12 510.776,586.832L510.784,586.832Z" style="fill:white;fill-rule:nonzero;"/>
</svg>
